<?xml version="1.0" standalone="no"?>
<!DOCTYPE svg PUBLIC "-//W3C//DTD SVG 20010904//EN"
 "http://www.w3.org/TR/2001/REC-SVG-20010904/DTD/svg10.dtd">
<svg version="1.0" xmlns="http://www.w3.org/2000/svg"
 width="312.000000pt" height="312.000000pt" viewBox="0 0 312.000000 312.000000"
 preserveAspectRatio="xMidYMid meet">
<metadata>
Created by potrace 1.14, written by Peter Selinger 2001-2017
</metadata>
<g transform="translate(0.000000,312.000000) scale(0.100000,-0.100000)"
fill="#000000" stroke="none">
<path d="M265 3113 c-47 -11 -129 -59 -166 -96 -21 -22 -52 -65 -67 -96 l-27
-56 0 -1305 0 -1305 28 -57 c36 -73 96 -133 167 -167 l55 -26 1305 0 1305 0
57 28 c72 35 130 94 166 166 l27 56 0 1305 0 1305 -27 56 c-36 72 -98 135
-168 168 l-55 26 -1290 1 c-710 1 -1299 0 -1310 -3z"/>
</g>
</svg>
